# xmcd
#
# Track frame offsets: 
#        150
#        14586
#        30472
#        47167
#        66715
#        85428
#        104187
#        121880
#        144708
#
# Disc length: 2136 seconds
#
# Revision: 0
# Processed by: cddbd v1.5.2PL0 Copyright (c) Steve Scherf et al.
# Submitted via: ExactAudioCopy v0.95b3
#
DISCID=89085609
DTITLE=Various Artist - Pickin' on the Pigeon
DYEAR=2006
DGENRE=Bluegrass
TTITLE0=Driving to the River - Autumn Jones
TTITLE1=Sometimes the Moon - Randy Pease
TTITLE2=Hydraulic - Bosko
TTITLE3=All the Time - Finer
TTITLE4=Ode to Mark Twain - Randy Pease
TTITLE5=Break Your Blues - Hog Maw Blues Band
TTITLE6=Cake on the Beach - The Toddlers
TTITLE7=Suburbia - Bosko
TTITLE8=Waiting - Red Sadie
EXTD=
EXTT0=
EXTT1=
EXTT2=
EXTT3=
EXTT4=
EXTT5=
EXTT6=
EXTT7=
EXTT8=
PLAYORDER=
